<svg role="img" viewBox="0 0 24 24" xmlns="http://www.w3.org/2000/svg">
  <title>shadcn/ui</title>
  <circle cx="12" cy="12" r="12" fill="#000000"/> 
  <path fill="#FFFFFF" transform="scale(0.8) translate(5, 5)" d="M17.219 10.784 11.784 16.219c-.407.407-.407 1.068 0 1.476.407.407 1.068.407 1.476 0l6.154-6.154c.407-.408.407-1.069 0-1.476-.408-.407-1.069-.407-1.476 0ZM17.132 1.305 1.305 17.132c-.407.407-.407 1.068 0 1.476.408.407 1.069.407 1.476 0L18.608 2.781c.407-.407.407-1.068 0-1.476-.408-.407-1.069-.407-1.476 0Z"/>
</svg>
